<svg width="10" height="21" viewBox="0 0 10 21" fill="none" xmlns="http://www.w3.org/2000/svg">
<path d="M8.98849 1.14304C9.06183 1.14871 9.12985 1.15438 9.19208 1.15986L9.13649 3.36148C9.0845 3.36112 9.02913 3.36076 8.97076 3.36039C8.57161 3.35788 8.03133 3.35536 7.46726 3.35536C6.7976 3.35536 6.25152 3.50834 5.91025 3.94423C5.59419 4.34793 5.55412 4.88094 5.55412 5.34828V7.8155V8.3155H6.05412H9.19657L9.08425 10.6944H6.05412H5.55412V11.1944V20.079H2.98148V11.1944V10.6944H2.48148H0.5V8.3155H2.48148H2.98148V7.8155V4.92948C2.98148 3.90134 3.3128 2.94802 3.99356 2.25388C4.67013 1.56402 5.74221 1.07898 7.32486 1.07898C7.99311 1.07898 8.57464 1.11103 8.98849 1.14304Z" fill="#FF6B00" stroke="#FF6B00"/>
</svg>
