<svg width="21" height="21" viewBox="0 0 21 21" fill="none" xmlns="http://www.w3.org/2000/svg">
<path d="M5.50335 3.1292V3.12898C5.50335 2.58611 5.28618 2.06581 4.8985 1.68122C4.50927 1.2961 3.98178 1.07898 3.43135 1.07898H3.43113C2.88215 1.07874 2.35528 1.29522 1.96506 1.68137L5.50335 3.1292ZM5.50335 3.1292C5.50347 3.39822 5.45012 3.66457 5.3464 3.91279C5.24268 4.161 5.09065 4.38613 4.89916 4.57507L4.89789 4.57634M5.50335 3.1292L4.89789 4.57634M4.89789 4.57634C4.50827 4.96356 3.98088 5.18031 3.43156 5.17898L3.43069 5.17898M4.89789 4.57634L3.43069 5.17898M3.43069 5.17898C2.88174 5.17861 2.35499 4.96229 1.96424 4.57677M3.43069 5.17898L1.96424 4.57677M1.96424 4.57677C1.77337 4.38696 1.62179 4.16138 1.51817 3.91294C1.4145 3.66439 1.36087 3.39784 1.36035 3.12855C1.36047 2.58529 1.577 2.06541 1.96505 1.68138L1.96424 4.57677ZM20.3604 13.382V20.079H17.3604V14.267C17.3604 13.1383 17.227 12.1745 16.8669 11.4772C16.6823 11.1199 16.4319 10.8201 16.1 10.612C15.7669 10.4031 15.3828 10.306 14.9634 10.306C13.885 10.306 13.0532 10.6992 12.5122 11.4507C11.992 12.1733 11.7894 13.1606 11.7894 14.266V20.079H8.78935V8.04798H11.5034V9.39798L12.4501 9.62259C12.8852 8.75712 14.0636 7.87798 15.9714 7.87798C17.8601 7.87798 18.893 8.38039 19.4912 9.2142C20.1207 10.0916 20.3604 11.4508 20.3604 13.382ZM4.93035 7.87798V19.909H1.93035V7.87798H4.93035Z" fill="#606060" stroke="#606060"/>
</svg>
