<svg width="18" height="15" viewBox="0 0 18 15" fill="none" xmlns="http://www.w3.org/2000/svg">
<path d="M17.3337 2.41237C16.7073 2.68411 16.0448 2.86375 15.367 2.9457C16.0821 2.51847 16.6181 1.84635 16.8753 1.05403C16.2033 1.45408 15.4676 1.73595 14.7003 1.88737C14.1874 1.33118 13.5045 0.960946 12.7585 0.834742C12.0125 0.708538 11.2458 0.833498 10.5785 1.19002C9.91119 1.54655 9.3811 2.11447 9.07136 2.80473C8.76162 3.49498 8.68974 4.26852 8.86699 5.00403C7.50818 4.9353 6.17903 4.58149 4.96587 3.96558C3.75272 3.34967 2.6827 2.48544 1.82533 1.42903C1.52461 1.95417 1.36659 2.54888 1.36699 3.15403C1.36593 3.71602 1.50384 4.26955 1.76845 4.76534C2.03307 5.26113 2.41617 5.68379 2.88366 5.9957C2.34031 5.98092 1.80856 5.83511 1.33366 5.5707V5.61237C1.33773 6.39977 1.61365 7.16161 2.11475 7.769C2.61585 8.3764 3.31137 8.79207 4.08366 8.9457C3.78637 9.03617 3.47772 9.08387 3.16699 9.08737C2.9519 9.08485 2.73734 9.06535 2.52533 9.02903C2.74525 9.70638 3.17084 10.2983 3.74289 10.7225C4.31493 11.1467 5.00497 11.382 5.71699 11.3957C4.51466 12.3418 3.03023 12.8581 1.50033 12.8624C1.22177 12.8633 0.943439 12.8466 0.666992 12.8124C2.22902 13.8209 4.04934 14.3563 5.90866 14.354C7.19174 14.3674 8.4646 14.1249 9.65292 13.6408C10.8412 13.1567 11.9212 12.4406 12.8297 11.5344C13.7381 10.6283 14.457 9.55019 14.9441 8.36312C15.4313 7.17605 15.677 5.90381 15.667 4.6207V4.17903C16.3209 3.69137 16.8849 3.09355 17.3337 2.41237Z" fill="#606060"/>
</svg>
